<svg id="svg" fill="#fff" stroke="#fff" width="200" height="200" version="1.1" viewBox="144 144 512 512" xmlns="http://www.w3.org/2000/svg">
    <g id="IconSvg_bgCarrier" stroke-width="0"></g>
    <g id="IconSvg_tracerCarrier" stroke-linecap="round" stroke-linejoin="round" stroke="#CCCCCC" stroke-width="0">
      <g xmlns="http://www.w3.org/2000/svg" fill-rule="evenodd">
  <path d="m526.88 296.98c16.414 3.4961 29.801 9.1406 31.277 11.703 1.4805 2.5625-0.32422 16.988-5.5078 32.957-6.4688 19.93-16.664 39.422-29.055 53.832-2.2656 2.6367-1.9648 6.6133 0.67188 8.8789 2.6367 2.2695 6.6133 1.9688 8.8789-0.66797 26.195-30.473 44.41-86.598 35.922-101.3-8.4844-14.695-66.16-26.984-105.64-19.551-3.418 0.64453-5.668 3.9336-5.0234 7.3516 0.64062 3.418 3.9336 5.668 7.3516 5.0273 18.672-3.5156 40.641-2.6016 61.125 1.7656zm-101.25 264.57c-11.188 12.383-22.695 21.078-25.633 21.078-2.9492 0-14.5-8.7344-25.711-21.164-13.992-15.508-25.77-34.027-32.086-51.922-1.1602-3.2812-4.7578-5-8.0352-3.8438-3.2812 1.1602-5 4.7578-3.8438 8.0352 13.363 37.84 52.746 81.492 69.676 81.492 16.879 0 56.148-43.465 69.578-81.223 1.1641-3.2773-0.54688-6.8789-3.8242-8.043-3.2773-1.168-6.8789 0.54297-8.043 3.8203-6.3516 17.855-18.121 36.32-32.078 51.77zm-178.29-219.91c-5.1836-15.969-6.9922-30.398-5.5117-32.961 1.4805-2.5703 14.914-8.2266 31.363-11.723 20.539-4.3633 42.547-5.2656 61.23-1.7109 3.418 0.64844 6.7148-1.5938 7.3633-5.0117 0.65234-3.4141-1.5898-6.7109-5.0078-7.3633-39.508-7.5117-97.355 4.7812-105.86 19.512-8.4883 14.703 9.7305 70.84 35.93 101.31 2.2695 2.6367 6.2461 2.9375 8.8828 0.66797 2.6367-2.2656 2.9375-6.2422 0.66797-8.8789-12.391-14.41-22.59-33.902-29.059-53.84z"></path>
  <path d="m337.02 318.13c0-21.535 10.855-46.234 28.422-69 13.637-17.672 30.293-31.762 34.555-31.762 4.2578 0 20.914 14.09 34.551 31.762 17.566 22.766 28.426 47.465 28.426 69 0 16.949-19.93 44.07-44.227 63.863-2.6953 2.1992-3.1016 6.1641-0.90625 8.8633 2.1992 2.6953 6.1641 3.1016 8.8594 0.90234 27.012-22.004 48.867-51.746 48.867-73.629 0-24.777-11.934-51.926-31.047-76.695-16.035-20.777-34.812-36.66-44.523-36.66-9.7148 0-28.492 15.883-44.523 36.66-19.117 24.77-31.051 51.918-31.051 76.695 0 21.883 21.855 51.625 48.867 73.629 2.6953 2.1992 6.6641 1.793 8.8594-0.90234 2.1953-2.6992 1.793-6.6641-0.90625-8.8633-24.297-19.793-44.223-46.914-44.223-63.863z"></path>
  <path d="m502.39 386.39c18.652 10.766 34.613 32.52 45.543 59.117 8.4844 20.645 12.359 42.113 10.23 45.801-2.1289 3.6914-22.66 11.07-44.781 14.043-28.5 3.832-55.316 0.88281-73.969-9.8828-14.676-8.4766-28.199-39.293-33.195-70.234-0.55469-3.4336-3.7852-5.7656-7.2188-5.2109-3.4336 0.55469-5.7695 3.7852-5.2148 7.2188 5.5508 34.395 20.383 68.195 39.332 79.133 21.457 12.391 50.934 15.629 81.945 11.461 26.012-3.5 49.152-11.816 54.012-20.227 4.8555-8.4141 0.48828-32.617-9.4883-56.891-11.895-28.938-29.441-52.848-50.898-65.238-18.949-10.938-55.633-6.8828-88.195 5.5039-3.25 1.2383-4.8828 4.875-3.6484 8.1289 1.2383 3.25 4.875 4.8828 8.125 3.6445 29.293-11.145 62.742-14.844 77.422-6.3672z"></path>
  <path d="m360.59 495.47c-18.652 10.766-45.469 13.715-73.969 9.8828-22.121-2.9727-42.652-10.352-44.781-14.043-2.1289-3.6875 1.7461-25.156 10.23-45.801 10.934-26.598 26.895-48.352 45.543-59.117 14.68-8.4766 48.129-4.7773 77.422 6.3672 3.25 1.2383 6.8867-0.39453 8.125-3.6445 1.2383-3.2539-0.39453-6.8906-3.6484-8.1289-32.559-12.387-69.246-16.441-88.195-5.5039-21.457 12.391-39 36.301-50.895 65.238-9.9805 24.273-14.348 48.477-9.4922 56.891 4.8594 8.4102 28.004 16.727 54.016 20.227 31.008 4.168 60.484 0.92969 81.941-11.461 18.949-10.938 33.781-44.738 39.332-79.133 0.55469-3.4336-1.7773-6.6641-5.2109-7.2188-3.4336-0.55469-6.668 1.7773-7.2227 5.2109-4.9922 30.941-18.516 61.758-33.195 70.234z"></path>
  <path d="m396.52 392.62c-14.871-3-31.426-1.5508-47.289 7.6055-8.457 4.8828-16.352 11.848-23.688 20.352-5.0781 5.8828-9.5977 12.164-13.516 18.441-1.375 2.1992-2.5781 4.25-3.6055 6.0977-0.62891 1.1289-1.0625 1.9531-1.3047 2.4297-1.5664 3.1016-0.32031 6.8906 2.7852 8.457 3.1055 1.5703 6.8906 0.32422 8.4609-2.7812 0.16406-0.32812 0.52344-1.0078 1.0664-1.9883 0.92578-1.6641 2.0234-3.5312 3.2812-5.5469 3.5977-5.7617 7.7461-11.527 12.367-16.883 6.4844-7.5117 13.352-13.57 20.449-17.668 12.867-7.4297 26.391-8.6133 38.504-6.1719 1.9531 0.39453 3.2891 0.76953 3.8906 0.98047 3.2852 1.1484 6.875-0.57812 8.0234-3.8633 1.1484-3.2812-0.57812-6.875-3.8633-8.0234-1.125-0.39453-3.0156-0.92578-5.5625-1.4375z"></path>
  <path d="m313.71 456.72c12.164 0.36719 27.023-0.82031 41.488-4.9375 7.043-2.0078 13.496-4.6211 19.219-7.9258 7.418-4.2852 13.609-9.7227 18.664-16.031 7.9141-9.875 11.797-19.754 13.105-26.656 0.64453-3.418-1.6016-6.7109-5.0195-7.3555-3.418-0.64844-6.7109 1.5977-7.3555 5.0156-0.21484 1.125-0.83203 3.3633-2 6.332-1.9844 5.0391-4.793 10.09-8.5586 14.789-4.1055 5.125-9.1133 9.5234-15.137 13-4.7617 2.75-10.266 4.9805-16.367 6.7188-7.3711 2.0977-15.312 3.4023-23.398 4.0469-5.543 0.44531-10.434 0.53125-14.262 0.41406-0.51172-0.015625-0.85156-0.027344-1-0.039062-3.4727-0.19141-6.4453 2.4648-6.6406 5.9375-0.19531 3.4727 2.4609 6.4453 5.9336 6.6406 0.25781 0.011719 0.70313 0.03125 1.3281 0.050781z"></path>
  <path d="m491.58 445.11c-1.0273-1.8477-2.2305-3.8984-3.6016-6.0977-3.9219-6.2773-8.4414-12.559-13.52-18.441-7.3359-8.5039-15.23-15.469-23.688-20.352-15.863-9.1562-32.418-10.605-47.289-7.6055-2.5469 0.51172-4.4375 1.043-5.5625 1.4375-3.2812 1.1484-5.0117 4.7422-3.8633 8.0234 1.1484 3.2852 4.7422 5.0117 8.0234 3.8633 0.60156-0.21094 1.9414-0.58594 3.8906-0.98047 12.113-2.4414 25.637-1.2578 38.504 6.1719 7.0977 4.0977 13.969 10.156 20.449 17.668 4.6211 5.3555 8.7695 11.121 12.367 16.883 1.2578 2.0156 2.3555 3.8828 3.2812 5.5469 0.54297 0.98047 0.90234 1.6602 1.0703 1.9883 1.5664 3.1055 5.3516 4.3516 8.457 2.7812 3.1055-1.5664 4.3516-5.3555 2.7852-8.457-0.23828-0.47656-0.67578-1.3008-1.3047-2.4297z"></path>
  <path d="m406.91 427.82c5.0547 6.3086 11.246 11.746 18.668 16.031 5.7227 3.3047 12.172 5.918 19.215 7.9258 14.469 4.1172 29.324 5.3047 41.488 4.9375 0.625-0.019531 1.0703-0.039062 1.3281-0.050781 3.4727-0.19531 6.1289-3.168 5.9336-6.6406s-3.168-6.1289-6.6406-5.9375c-0.14844 0.011718-0.48828 0.023437-1 0.039062-3.8242 0.11719-8.7188 0.03125-14.262-0.41406-8.0859-0.64453-16.027-1.9492-23.395-4.0469-6.1055-1.7383-11.609-3.9688-16.371-6.7188-6.0234-3.4766-11.031-7.875-15.137-13-3.7656-4.6992-6.5742-9.75-8.5547-14.789-1.168-2.9688-1.7891-5.207-2-6.332-0.64844-3.418-3.9414-5.6641-7.3594-5.0156-3.418 0.64453-5.6641 3.9375-5.0156 7.3555 1.3047 6.9023 5.1875 16.781 13.102 26.656z"></path>
  <path d="m399.96 399.98-2.1172 5.9336c6.6094 2.3594 11.555-6.1406 6.2617-10.691-0.32812-0.27734-1.2461-1.1641-2.3906-2.4297-1.9766-2.1836-3.9648-4.7773-5.8281-7.75-5.3086-8.4844-8.4844-18.227-8.4844-29.133 0-0.85156 0.019531-1.7188 0.058594-2.5938 0.47656-10.512 3.7188-22.016 8.8516-33.633 1.9805-4.4805 4.1016-8.6602 6.2188-12.414 1.2578-2.2266 2.2188-3.7969 2.7344-4.5859 1.9062-2.9102 1.0938-6.8125-1.8164-8.7188-2.9102-1.9062-6.8125-1.0898-8.7188 1.8164-0.66406 1.0156-1.7695 2.8203-3.168 5.3008-2.3125 4.0938-4.6172 8.6367-6.7695 13.512-5.7109 12.926-9.3594 25.855-9.9141 38.156-0.046875 1.0625-0.070312 2.1172-0.070312 3.1602 0 13.441 3.9102 25.441 10.402 35.816 3.9102 6.2461 7.8711 10.621 10.68 13.043l4.1094-4.7734 2.1172-5.9336c-7.9336-2.832-12.18 9-4.293 11.844 3.3789 1.1797 6.9688-0.55078 8.1172-3.832 1.1484-3.2812-0.58203-6.875-3.8633-8.0234 0.023437 0.007812-2.1172 5.9297-2.1172 5.9297z"></path>
  <path d="m397.46 307.27c2.1172 3.7539 4.2422 7.9336 6.2188 12.414 5.1328 11.617 8.375 23.121 8.8516 33.633 0.039063 0.875 0.058594 1.7422 0.058594 2.5938 0 10.906-3.1758 20.652-8.4844 29.133-1.8633 2.9766-3.8555 5.5664-5.832 7.7539-1.1445 1.2656-1.9883 2.082-2.3867 2.4258-2.6367 2.2656-2.9336 6.2422-0.66406 8.8789 2.2656 2.6367 6.2422 2.9336 8.8789 0.66797 2.8086-2.418 6.7656-6.7969 10.676-13.039 6.4961-10.375 10.406-22.379 10.406-35.82 0-1.043-0.023438-2.0977-0.070312-3.1602-0.55469-12.301-4.1992-25.23-9.9102-38.156-2.1562-4.875-4.4609-9.418-6.7695-13.512-1.4023-2.4805-2.5078-4.2852-3.1719-5.3008-1.9023-2.9062-5.8086-3.7227-8.7188-1.8164-2.9062 1.9062-3.7227 5.8086-1.8164 8.7188 0.51562 0.78906 1.4766 2.3594 2.7344 4.5859z"></path>
 </g>

      </g>
     <g id="IconSvg_iconCarrier">
      <g xmlns="http://www.w3.org/2000/svg" fill-rule="evenodd">
  <path d="m526.88 296.98c16.414 3.4961 29.801 9.1406 31.277 11.703 1.4805 2.5625-0.32422 16.988-5.5078 32.957-6.4688 19.93-16.664 39.422-29.055 53.832-2.2656 2.6367-1.9648 6.6133 0.67188 8.8789 2.6367 2.2695 6.6133 1.9688 8.8789-0.66797 26.195-30.473 44.41-86.598 35.922-101.3-8.4844-14.695-66.16-26.984-105.64-19.551-3.418 0.64453-5.668 3.9336-5.0234 7.3516 0.64062 3.418 3.9336 5.668 7.3516 5.0273 18.672-3.5156 40.641-2.6016 61.125 1.7656zm-101.25 264.57c-11.188 12.383-22.695 21.078-25.633 21.078-2.9492 0-14.5-8.7344-25.711-21.164-13.992-15.508-25.77-34.027-32.086-51.922-1.1602-3.2812-4.7578-5-8.0352-3.8438-3.2812 1.1602-5 4.7578-3.8438 8.0352 13.363 37.84 52.746 81.492 69.676 81.492 16.879 0 56.148-43.465 69.578-81.223 1.1641-3.2773-0.54688-6.8789-3.8242-8.043-3.2773-1.168-6.8789 0.54297-8.043 3.8203-6.3516 17.855-18.121 36.32-32.078 51.77zm-178.29-219.91c-5.1836-15.969-6.9922-30.398-5.5117-32.961 1.4805-2.5703 14.914-8.2266 31.363-11.723 20.539-4.3633 42.547-5.2656 61.23-1.7109 3.418 0.64844 6.7148-1.5938 7.3633-5.0117 0.65234-3.4141-1.5898-6.7109-5.0078-7.3633-39.508-7.5117-97.355 4.7812-105.86 19.512-8.4883 14.703 9.7305 70.84 35.93 101.31 2.2695 2.6367 6.2461 2.9375 8.8828 0.66797 2.6367-2.2656 2.9375-6.2422 0.66797-8.8789-12.391-14.41-22.59-33.902-29.059-53.84z"></path>
  <path d="m337.02 318.13c0-21.535 10.855-46.234 28.422-69 13.637-17.672 30.293-31.762 34.555-31.762 4.2578 0 20.914 14.09 34.551 31.762 17.566 22.766 28.426 47.465 28.426 69 0 16.949-19.93 44.07-44.227 63.863-2.6953 2.1992-3.1016 6.1641-0.90625 8.8633 2.1992 2.6953 6.1641 3.1016 8.8594 0.90234 27.012-22.004 48.867-51.746 48.867-73.629 0-24.777-11.934-51.926-31.047-76.695-16.035-20.777-34.812-36.66-44.523-36.66-9.7148 0-28.492 15.883-44.523 36.66-19.117 24.77-31.051 51.918-31.051 76.695 0 21.883 21.855 51.625 48.867 73.629 2.6953 2.1992 6.6641 1.793 8.8594-0.90234 2.1953-2.6992 1.793-6.6641-0.90625-8.8633-24.297-19.793-44.223-46.914-44.223-63.863z"></path>
  <path d="m502.39 386.39c18.652 10.766 34.613 32.52 45.543 59.117 8.4844 20.645 12.359 42.113 10.23 45.801-2.1289 3.6914-22.66 11.07-44.781 14.043-28.5 3.832-55.316 0.88281-73.969-9.8828-14.676-8.4766-28.199-39.293-33.195-70.234-0.55469-3.4336-3.7852-5.7656-7.2188-5.2109-3.4336 0.55469-5.7695 3.7852-5.2148 7.2188 5.5508 34.395 20.383 68.195 39.332 79.133 21.457 12.391 50.934 15.629 81.945 11.461 26.012-3.5 49.152-11.816 54.012-20.227 4.8555-8.4141 0.48828-32.617-9.4883-56.891-11.895-28.938-29.441-52.848-50.898-65.238-18.949-10.938-55.633-6.8828-88.195 5.5039-3.25 1.2383-4.8828 4.875-3.6484 8.1289 1.2383 3.25 4.875 4.8828 8.125 3.6445 29.293-11.145 62.742-14.844 77.422-6.3672z"></path>
  <path d="m360.59 495.47c-18.652 10.766-45.469 13.715-73.969 9.8828-22.121-2.9727-42.652-10.352-44.781-14.043-2.1289-3.6875 1.7461-25.156 10.23-45.801 10.934-26.598 26.895-48.352 45.543-59.117 14.68-8.4766 48.129-4.7773 77.422 6.3672 3.25 1.2383 6.8867-0.39453 8.125-3.6445 1.2383-3.2539-0.39453-6.8906-3.6484-8.1289-32.559-12.387-69.246-16.441-88.195-5.5039-21.457 12.391-39 36.301-50.895 65.238-9.9805 24.273-14.348 48.477-9.4922 56.891 4.8594 8.4102 28.004 16.727 54.016 20.227 31.008 4.168 60.484 0.92969 81.941-11.461 18.949-10.938 33.781-44.738 39.332-79.133 0.55469-3.4336-1.7773-6.6641-5.2109-7.2188-3.4336-0.55469-6.668 1.7773-7.2227 5.2109-4.9922 30.941-18.516 61.758-33.195 70.234z"></path>
  <path d="m396.52 392.62c-14.871-3-31.426-1.5508-47.289 7.6055-8.457 4.8828-16.352 11.848-23.688 20.352-5.0781 5.8828-9.5977 12.164-13.516 18.441-1.375 2.1992-2.5781 4.25-3.6055 6.0977-0.62891 1.1289-1.0625 1.9531-1.3047 2.4297-1.5664 3.1016-0.32031 6.8906 2.7852 8.457 3.1055 1.5703 6.8906 0.32422 8.4609-2.7812 0.16406-0.32812 0.52344-1.0078 1.0664-1.9883 0.92578-1.6641 2.0234-3.5312 3.2812-5.5469 3.5977-5.7617 7.7461-11.527 12.367-16.883 6.4844-7.5117 13.352-13.57 20.449-17.668 12.867-7.4297 26.391-8.6133 38.504-6.1719 1.9531 0.39453 3.2891 0.76953 3.8906 0.98047 3.2852 1.1484 6.875-0.57812 8.0234-3.8633 1.1484-3.2812-0.57812-6.875-3.8633-8.0234-1.125-0.39453-3.0156-0.92578-5.5625-1.4375z"></path>
  <path d="m313.71 456.72c12.164 0.36719 27.023-0.82031 41.488-4.9375 7.043-2.0078 13.496-4.6211 19.219-7.9258 7.418-4.2852 13.609-9.7227 18.664-16.031 7.9141-9.875 11.797-19.754 13.105-26.656 0.64453-3.418-1.6016-6.7109-5.0195-7.3555-3.418-0.64844-6.7109 1.5977-7.3555 5.0156-0.21484 1.125-0.83203 3.3633-2 6.332-1.9844 5.0391-4.793 10.09-8.5586 14.789-4.1055 5.125-9.1133 9.5234-15.137 13-4.7617 2.75-10.266 4.9805-16.367 6.7188-7.3711 2.0977-15.312 3.4023-23.398 4.0469-5.543 0.44531-10.434 0.53125-14.262 0.41406-0.51172-0.015625-0.85156-0.027344-1-0.039062-3.4727-0.19141-6.4453 2.4648-6.6406 5.9375-0.19531 3.4727 2.4609 6.4453 5.9336 6.6406 0.25781 0.011719 0.70313 0.03125 1.3281 0.050781z"></path>
  <path d="m491.58 445.11c-1.0273-1.8477-2.2305-3.8984-3.6016-6.0977-3.9219-6.2773-8.4414-12.559-13.52-18.441-7.3359-8.5039-15.23-15.469-23.688-20.352-15.863-9.1562-32.418-10.605-47.289-7.6055-2.5469 0.51172-4.4375 1.043-5.5625 1.4375-3.2812 1.1484-5.0117 4.7422-3.8633 8.0234 1.1484 3.2852 4.7422 5.0117 8.0234 3.8633 0.60156-0.21094 1.9414-0.58594 3.8906-0.98047 12.113-2.4414 25.637-1.2578 38.504 6.1719 7.0977 4.0977 13.969 10.156 20.449 17.668 4.6211 5.3555 8.7695 11.121 12.367 16.883 1.2578 2.0156 2.3555 3.8828 3.2812 5.5469 0.54297 0.98047 0.90234 1.6602 1.0703 1.9883 1.5664 3.1055 5.3516 4.3516 8.457 2.7812 3.1055-1.5664 4.3516-5.3555 2.7852-8.457-0.23828-0.47656-0.67578-1.3008-1.3047-2.4297z"></path>
  <path d="m406.91 427.82c5.0547 6.3086 11.246 11.746 18.668 16.031 5.7227 3.3047 12.172 5.918 19.215 7.9258 14.469 4.1172 29.324 5.3047 41.488 4.9375 0.625-0.019531 1.0703-0.039062 1.3281-0.050781 3.4727-0.19531 6.1289-3.168 5.9336-6.6406s-3.168-6.1289-6.6406-5.9375c-0.14844 0.011718-0.48828 0.023437-1 0.039062-3.8242 0.11719-8.7188 0.03125-14.262-0.41406-8.0859-0.64453-16.027-1.9492-23.395-4.0469-6.1055-1.7383-11.609-3.9688-16.371-6.7188-6.0234-3.4766-11.031-7.875-15.137-13-3.7656-4.6992-6.5742-9.75-8.5547-14.789-1.168-2.9688-1.7891-5.207-2-6.332-0.64844-3.418-3.9414-5.6641-7.3594-5.0156-3.418 0.64453-5.6641 3.9375-5.0156 7.3555 1.3047 6.9023 5.1875 16.781 13.102 26.656z"></path>
  <path d="m399.96 399.98-2.1172 5.9336c6.6094 2.3594 11.555-6.1406 6.2617-10.691-0.32812-0.27734-1.2461-1.1641-2.3906-2.4297-1.9766-2.1836-3.9648-4.7773-5.8281-7.75-5.3086-8.4844-8.4844-18.227-8.4844-29.133 0-0.85156 0.019531-1.7188 0.058594-2.5938 0.47656-10.512 3.7188-22.016 8.8516-33.633 1.9805-4.4805 4.1016-8.6602 6.2188-12.414 1.2578-2.2266 2.2188-3.7969 2.7344-4.5859 1.9062-2.9102 1.0938-6.8125-1.8164-8.7188-2.9102-1.9062-6.8125-1.0898-8.7188 1.8164-0.66406 1.0156-1.7695 2.8203-3.168 5.3008-2.3125 4.0938-4.6172 8.6367-6.7695 13.512-5.7109 12.926-9.3594 25.855-9.9141 38.156-0.046875 1.0625-0.070312 2.1172-0.070312 3.1602 0 13.441 3.9102 25.441 10.402 35.816 3.9102 6.2461 7.8711 10.621 10.68 13.043l4.1094-4.7734 2.1172-5.9336c-7.9336-2.832-12.18 9-4.293 11.844 3.3789 1.1797 6.9688-0.55078 8.1172-3.832 1.1484-3.2812-0.58203-6.875-3.8633-8.0234 0.023437 0.007812-2.1172 5.9297-2.1172 5.9297z"></path>
  <path d="m397.46 307.27c2.1172 3.7539 4.2422 7.9336 6.2188 12.414 5.1328 11.617 8.375 23.121 8.8516 33.633 0.039063 0.875 0.058594 1.7422 0.058594 2.5938 0 10.906-3.1758 20.652-8.4844 29.133-1.8633 2.9766-3.8555 5.5664-5.832 7.7539-1.1445 1.2656-1.9883 2.082-2.3867 2.4258-2.6367 2.2656-2.9336 6.2422-0.66406 8.8789 2.2656 2.6367 6.2422 2.9336 8.8789 0.66797 2.8086-2.418 6.7656-6.7969 10.676-13.039 6.4961-10.375 10.406-22.379 10.406-35.82 0-1.043-0.023438-2.0977-0.070312-3.1602-0.55469-12.301-4.1992-25.23-9.9102-38.156-2.1562-4.875-4.4609-9.418-6.7695-13.512-1.4023-2.4805-2.5078-4.2852-3.1719-5.3008-1.9023-2.9062-5.8086-3.7227-8.7188-1.8164-2.9062 1.9062-3.7227 5.8086-1.8164 8.7188 0.51562 0.78906 1.4766 2.3594 2.7344 4.5859z"></path>
 </g>

      </g>
      </svg>